<?xml version="1.0" encoding="utf-8"?>
<!-- Generator: Adobe Illustrator 25.3.0, SVG Export Plug-In . SVG Version: 6.00 Build 0)  -->
<svg version="1.1" id="Camada_1" xmlns="http://www.w3.org/2000/svg" xmlns:xlink="http://www.w3.org/1999/xlink" x="0px" y="0px"
	 viewBox="0 0 97.9 98" width="80" style="enable-background:new 0 0 97.9 98;" xml:space="preserve">
<style type="text/css">
	.st0{fill:#00FF00;stroke:#FFFFFF;stroke-width:7.5695;stroke-miterlimit:1.3763;}
	.st1{fill:#FFFFFF;stroke:#FFFFFF;stroke-width:2.7525;stroke-miterlimit:1.3763;}
</style>
<g>
	<path class="st0" d="M94.1,48.5c0,1.2,0,2.4-0.1,3.5c-0.2,2.4-0.6,4.7-1.1,6.9c-0.6,2.4-1.3,4.7-2.2,6.9c-0.9,2.3-2.1,4.4-3.4,6.5
		c-0.1,0.1-0.2,0.3-0.3,0.4c-1.6,2.5-3.4,4.8-5.5,6.9c-0.4,0.4-0.8,0.8-1.2,1.2c-2.1,2-4.4,3.9-6.9,5.4c-0.1,0.1-0.3,0.2-0.4,0.3
		c-2.1,1.3-4.2,2.4-6.5,3.4c-2.2,0.9-4.5,1.7-6.9,2.2c-2.2,0.5-4.5,0.9-6.9,1.1c-1.2,0.1-2.3,0.1-3.5,0.1c-1.1,0-2.3,0-3.4-0.1
		c-2.4-0.2-4.7-0.5-6.9-1.1c-2.4-0.6-4.7-1.3-6.9-2.2c-1.7-0.7-3.4-1.5-5-2.4l-1.9,0.6L11.6,92l-4,1.2l-2.9,0.9l-1,0.3L4,93.2
		l0.7-2.6l1.2-4.3l3.8-13.8l0.6-2.3c-0.8-1.5-1.6-3-2.2-4.5c-0.9-2.2-1.7-4.5-2.2-6.9c-0.5-2.2-0.9-4.5-1.1-6.9c0-0.3-0.1-0.7-0.1-1
		c0-0.8-0.1-1.7-0.1-2.5s0-1.7,0.1-2.5c0-0.3,0-0.6,0.1-0.9c0.2-2.4,0.5-4.7,1.1-6.9c0.6-2.4,1.3-4.7,2.2-6.9c1-2.4,2.2-4.7,3.6-6.8
		c0,0,0,0,0-0.1c1.6-2.5,3.4-4.8,5.4-6.9c0.5-0.5,0.9-1,1.4-1.4c2.1-2,4.4-3.8,6.9-5.4c0,0,0,0,0.1,0c2.2-1.4,4.4-2.6,6.8-3.6
		c2.2-0.9,4.5-1.7,6.9-2.2C41.3,4.4,43.6,4,46,3.8c0.3,0,0.6,0,0.9-0.1h5c0.3,0,0.7,0,1,0.1c2.4,0.2,4.7,0.6,6.9,1.1
		c2.4,0.6,4.7,1.3,6.9,2.2c2.3,1,4.6,2.1,6.7,3.5c0.1,0,0.1,0.1,0.2,0.1c2.5,1.6,4.8,3.4,6.9,5.4c0.4,0.4,0.9,0.9,1.3,1.3
		c2,2.1,3.8,4.4,5.4,6.9c0.1,0.1,0.1,0.2,0.2,0.3c1.3,2.1,2.5,4.3,3.4,6.6c0.9,2.2,1.7,4.5,2.2,6.9c0.5,2.2,0.9,4.5,1.1,6.9
		C94,46.2,94.1,47.3,94.1,48.5z"/>
	<path class="st1" d="M72.4,66.6c-0.7,1.2-1.9,2.3-3.7,3c-1.7,0.6-3.9,0.9-6.9,0.6C60,70,58,69.6,55.6,69c-0.3-0.1-0.5-0.1-0.8-0.2
		c-2-0.6-3.9-1.3-5.8-2.2c-0.4-0.2-0.8-0.4-1.1-0.6c-2.5-1.3-4.7-2.8-6.9-4.7c-0.6-0.5-1.2-1.1-1.8-1.6c-1.8-1.8-3.5-3.8-5.1-6.1
		c-0.2-0.2-0.3-0.5-0.5-0.7c-0.9-1.3-1.7-2.6-2.4-4c-0.6-1-1-1.9-1.4-2.8C28.6,43.3,28,41,27.8,39c-0.3-3,0.3-5.2,1.4-6.9
		c1.3-2,3.3-3.2,5.1-3.7c2.1-0.7,3.9-0.6,4.2,0c0.6,0.9,1.3,2.3,2,3.8c0.2,0.5,0.5,0.9,0.7,1.4c0.7,1.4,1.3,2.8,1.6,3.8
		c0.2,0.6,0.2,1.2,0.2,1.7c-0.1,1.6-1,3-1.8,3.9c-0.6,0.7-1,1.1-1,1.1s-0.5,0.7-0.3,1.9c0.1,0.4,0.2,0.8,0.5,1.3
		c0.1,0.2,0.4,0.8,0.9,1.6c0.6,1,1.6,2.4,3,4c1,1.1,2.3,2.3,3.9,3.4c1.6,1.2,3.5,2.3,5.7,3.3c0.2,0.1,0.4,0.2,0.6,0.2
		c0.2,0.1,0.4,0.1,0.6,0.1c0.5,0.1,1,0,1.5-0.1c2.5-0.7,4.2-3.4,4.2-3.4s0.4-0.9,1.2-1.4c0.6-0.3,1.3-0.5,2.3,0.1
		c1.1,0.6,2.9,1.4,4.6,2.1c1.5,0.6,2.8,1.3,3.6,2c0.1,0.1,0.3,0.3,0.4,0.6C73.4,61,73.8,64.1,72.4,66.6z"/>
</g>
</svg>
